<svg data-v-423bf9ae="" xmlns="http://www.w3.org/2000/svg" viewBox="0 0 288.02624556260116 60" class="font"><!----><!----><defs data-v-423bf9ae=""><linearGradient data-v-423bf9ae="" gradientTransform="rotate(25)" id="c47eb2bf-0254-41b9-9d22-3af8e0ba9e53" x1="0%" y1="0%" x2="100%" y2="0%"><stop data-v-423bf9ae="" offset="0%" style="stop-color: rgb(78, 26, 112); stop-opacity: 1;"></stop><stop data-v-423bf9ae="" offset="100%" style="stop-color: rgb(43, 76, 242); stop-opacity: 1;"></stop></linearGradient></defs><g data-v-423bf9ae="" id="1d1974fa-6eb4-4948-9a8d-202bf1b9b38e" fill="url(#c47eb2bf-0254-41b9-9d22-3af8e0ba9e53)" transform="matrix(4.369992733001709,0,0,4.369992733001709,-2.6219849586486816,-13.459576606750488)"><path d="M3.53 13.78L4.89 13.78L7.80 4.54L6.61 4.54L5.14 9.53C4.82 10.63 4.59 11.49 4.26 12.59L4.20 12.59C3.86 11.49 3.64 10.63 3.32 9.53L1.83 4.54L0.60 4.54ZM13.02 13.96C14.11 13.96 14.97 13.57 15.64 13.12L15.23 12.35C14.60 12.77 13.96 13.02 13.16 13.02C11.68 13.02 10.61 12.03 10.56 10.49L15.88 10.49C15.90 10.30 15.92 10.05 15.92 9.81C15.92 7.80 14.77 6.47 12.82 6.47C11.06 6.47 9.37 7.90 9.37 10.22C9.37 12.56 11.00 13.96 13.02 13.96ZM10.54 9.65C10.72 8.22 11.73 7.38 12.84 7.38C14.10 7.38 14.85 8.19 14.85 9.65ZM22.48 13.96C23.23 13.96 23.70 13.76 24.32 13.52L24.02 12.66C23.52 12.89 23.13 13.01 22.74 13.01C21.92 13.01 21.41 12.54 21.41 11.49L21.41 3.60L17.93 3.60L17.93 4.54L20.26 4.54L20.26 11.41C20.26 13.09 21.04 13.96 22.48 13.96ZM29.40 13.96C31.19 13.96 32.76 12.59 32.76 10.22C32.76 7.83 31.19 6.47 29.40 6.47C27.61 6.47 26.04 7.83 26.04 10.22C26.04 12.59 27.61 13.96 29.40 13.96ZM29.40 13.01C28.10 13.01 27.23 11.89 27.23 10.22C27.23 8.55 28.10 7.42 29.40 7.42C30.70 7.42 31.57 8.55 31.57 10.22C31.57 11.89 30.70 13.01 29.40 13.01ZM38.44 13.96C39.45 13.96 40.40 13.54 41.15 12.84L40.64 12.10C40.07 12.60 39.37 13.01 38.53 13.01C36.96 13.01 35.91 11.89 35.91 10.22C35.91 8.55 36.99 7.42 38.56 7.42C39.27 7.42 39.86 7.73 40.42 8.26L40.99 7.52C40.43 6.94 39.62 6.47 38.51 6.47C36.46 6.47 34.72 7.83 34.72 10.22C34.72 12.59 36.32 13.96 38.44 13.96ZM46.48 5.04C47.03 5.04 47.46 4.65 47.46 4.07C47.46 3.49 47.03 3.08 46.48 3.08C45.93 3.08 45.50 3.49 45.50 4.07C45.50 4.65 45.93 5.04 46.48 5.04ZM43.40 13.78L49.84 13.78L49.84 12.82L47.19 12.82L47.19 6.64L43.40 6.64L43.40 7.57L46.05 7.57L46.05 12.82L43.40 12.82ZM55.90 13.96C56.64 13.96 57.43 13.76 58.04 13.52L57.79 12.68C57.32 12.88 56.80 13.01 56.15 13.01C54.84 13.01 54.43 12.32 54.43 11.03L54.43 7.57L57.78 7.57L57.78 6.64L54.43 6.64L54.43 3.84L53.33 4.54L53.33 6.64L51.37 6.64L51.37 7.57L53.28 7.57L53.28 11.02C53.28 12.77 53.93 13.96 55.90 13.96ZM60.63 16.81C62.17 16.81 63 15.74 63.53 14.36L66.51 6.64L65.42 6.64L63.94 10.65C63.70 11.30 63.45 12.04 63.21 12.71L63.15 12.71C62.87 12.03 62.58 11.28 62.31 10.65L60.65 6.64L59.49 6.64L62.66 13.80L62.47 14.31C62.10 15.25 61.54 15.86 60.59 15.86C60.38 15.86 60.16 15.82 59.98 15.76L59.74 16.67C59.98 16.76 60.31 16.81 60.63 16.81Z"></path></g><!----><!----></svg>